<svg width="1920" height="4281" viewBox="0 0 1920 4281" fill="none" xmlns="http://www.w3.org/2000/svg">
<path d="M1920 0H408C348.083 116.923 350.242 147.935 408 197.5C480.496 231.753 558.97 221.042 678.5 159.5C806.159 111.442 854.235 134.157 900.5 258C935.455 332.71 1005.35 380.416 1137 382.5C1241.88 384.018 1282.19 400.357 1316.5 461C1345.37 513.025 1343.36 552.78 1308.53 598.5C1250.99 633.713 1214.93 664.861 1204.5 695.5C1185.38 835.658 1296.85 869.717 1598.5 893C1673.78 902.429 1738.99 908.994 1773 938.251C1807.01 967.508 1753.89 1199.79 1545.5 1314C1482.09 1356.17 1187.62 1294.22 1096.5 1349C1039.32 1385.63 1016.53 1439.23 982.25 1557.5C950.945 1653.64 924.786 1698.02 868 1766C730.866 1850.85 634.033 1873.94 434.5 1876C231.646 1907.65 138.288 1961.67 0 2120.5V4281H1920V4086.5C1711.15 4073.48 1657.88 4040.41 1674.5 3936.5C1695.35 3828.49 1700 3777.26 1699.5 3697.5C1689.18 3551.78 1663.08 3522.54 1598.5 3517C1462.41 3521.1 1404.06 3519.84 1333.5 3511C1211.35 3478.78 1169.63 3447.16 1152 3362C1147.5 3271.49 1146.17 3221.61 1166.5 3149C1204.53 3067 1280.32 3068.08 1426.5 3079.5C1538.22 3082.36 1575.86 3036.92 1587 2850.5C1589.63 2817.29 1596.28 2804.17 1622 2795.5C1827.53 2765.13 1893.13 2703.81 1920 2514V0Z" fill="#74EF87"/>
</svg>